<?xml version="1.0" standalone="no"?><!DOCTYPE svg PUBLIC "-//W3C//DTD SVG 1.1//EN" "http://www.w3.org/Graphics/SVG/1.1/DTD/svg11.dtd"><svg t="1560758775005" class="icon" style="" viewBox="0 0 1024 1024" version="1.1" xmlns="http://www.w3.org/2000/svg" p-id="8601" xmlns:xlink="http://www.w3.org/1999/xlink" width="200" height="200"><defs><style type="text/css"></style></defs><path d="M896.682667 773.12L526.933333 981.333333v-162.133333l230.357334-126.165333 139.349333 80.085333z m25.258666-22.784V314.88l-135.253333 77.696v279.893333l135.253333 77.824z m-797.098666 22.784L494.506667 981.333333v-162.133333l-230.314667-126.165333-139.349333 80.085333z m-25.301334-22.784V314.88l135.253334 77.696v279.893333l-135.253334 77.824zM115.370667 286.72l379.136-213.546667v156.757334L251.605333 362.965333l-1.834666 1.066667-134.4-77.312z m790.784 0L526.933333 73.173333v156.757334l242.901334 133.034666 1.834666 1.066667 134.4-77.312zM494.506667 782.293333l-227.285334-124.416V411.392l227.242667 130.645333v240.213334z m32.426666 0l227.242667-124.416V411.392l-227.242667 130.645333v240.213334zM282.666667 382.848l228.138666-124.928 228.138667 124.928-228.138667 131.2-228.138666-131.2z" fill="#2c2c2c" p-id="8602"></path></svg>